<svg xmlns="http://www.w3.org/2000/svg" viewBox="-112 -2 224 174" role="img" aria-label="Pangea symbol"><path d="M-1.89,13.52 L-2.24,14.71 L-2.62,15.87 L-3.03,17.01 L-3.45,18.12 L-3.90,19.21 L-4.38,20.28 L-4.87,21.32 L-5.38,22.35 L-5.91,23.35 L-6.46,24.34 L-7.02,25.31 L-7.60,26.26 L-8.19,27.20 L-8.80,28.12 L-9.42,29.03 L-10.05,29.93 L-10.69,30.81 L-11.33,31.68 L-11.99,32.55 L-12.65,33.40 L-13.32,34.25 L-13.99,35.09 L-14.66,35.92 L-15.34,36.75 L-16.02,37.57 L-16.70,38.39 L-17.38,39.21 L-18.05,40.03 L-18.73,40.84 L-19.40,41.66 L-20.06,42.48 L-20.72,43.30 L-21.37,44.12 L-22.01,44.95 L-22.65,45.78 L-23.27,46.62 L-23.88,47.47 L-24.48,48.32 L-25.06,49.19 L-25.63,50.06 L-26.19,50.94 L-26.73,51.84 L-27.25,52.75 L-27.75,53.67 L-28.23,54.61 L-28.69,55.56 L-29.12,56.53 L-29.54,57.52 L-29.93,58.53 L-30.29,59.55 L-30.63,60.60 L-30.94,61.67 L-31.23,62.76 L-31.48,63.87 L-31.70,65.01 L-31.89,66.17 L-32.05,67.36 L-32.17,68.57 L-32.26,69.82 L-32.32,71.09 L-32.33,72.39 L-32.31,73.72 L-32.25,75.09 L-32.15,76.49 L-32.01,77.92 L-31.82,79.38 L-31.66,80.44 L-31.55,80.39 L-31.39,80.35 L-31.23,80.32 L-31.06,80.30 L-30.89,80.30 L-30.73,80.32 L-30.57,80.36 L-30.41,80.41 L-30.25,80.47 L-30.11,80.55 L-29.97,80.65 L-29.84,80.76 L-29.73,80.87 L-29.62,81.01 L-29.53,81.15 L-29.45,81.29 L-29.39,81.45 L-29.35,81.61 L-29.32,81.77 L-29.20,82.63 L-29.08,83.48 L-28.95,84.32 L-28.81,85.14 L-28.67,85.96 L-28.52,86.77 L-28.37,87.57 L-28.21,88.37 L-28.04,89.15 L-27.87,89.93 L-27.68,90.69 L-27.50,91.45 L-27.30,92.20 L-27.10,92.94 L-26.89,93.68 L-26.68,94.40 L-26.46,95.12 L-26.23,95.83 L-26.00,96.53 L-25.76,97.22 L-25.51,97.90 L-25.26,98.58 L-25.00,99.25 L-24.73,99.91 L-24.45,100.56 L-24.17,101.20 L-23.89,101.84 L-23.59,102.47 L-23.29,103.09 L-22.98,103.70 L-22.67,104.31 L-22.35,104.90 L-22.02,105.50 L-21.69,106.08 L-21.35,106.65 L-21.00,107.22 L-20.65,107.78 L-20.28,108.34 L-19.92,108.88 L-19.54,109.42 L-19.16,109.96 L-18.77,110.48 L-18.37,111.00 L-17.97,111.51 L-17.56,112.02 L-17.15,112.51 L-16.72,113.01 L-16.29,113.49 L-15.85,113.97 L-15.41,114.44 L-14.96,114.91 L-14.50,115.36 L-14.03,115.82 L-13.56,116.26 L-13.08,116.70 L-12.59,117.13 L-12.10,117.56 L-11.60,117.98 L-11.09,118.40 L-10.57,118.80 L-10.04,119.21 L-9.51,119.60 L-8.97,119.99 L-8.43,120.38 L-7.87,120.75 L-7.31,121.13 L-6.74,121.49 L-6.16,121.85 L-5.58,122.21 L-4.99,122.56 L-4.39,122.90 L-3.78,123.24 L-3.17,123.57 L-2.54,123.90 L-1.91,124.22 L-1.70,124.32 L-1.70,12.83 L-1.89,13.52Z M-32.25,87.99 L-32.62,89.01 L-33.02,90.02 L-33.44,91.05 L-33.88,92.07 L-34.34,93.10 L-34.82,94.14 L-35.33,95.18 L-35.85,96.22 L-36.40,97.27 L-36.97,98.33 L-37.56,99.38 L-38.17,100.44 L-38.80,101.51 L-39.45,102.58 L-40.12,103.65 L-40.82,104.72 L-41.53,105.80 L-42.25,106.88 L-43.00,107.96 L-43.77,109.05 L-44.55,110.14 L-45.36,111.23 L-46.18,112.32 L-47.02,113.42 L-47.88,114.51 L-48.75,115.61 L-49.64,116.71 L-50.55,117.82 L-51.47,118.92 L-52.42,120.03 L-53.37,121.13 L-54.35,122.24 L-55.34,123.35 L-56.34,124.46 L-57.36,125.57 L-58.39,126.68 L-59.44,127.79 L-60.51,128.90 L-61.59,130.01 L-62.68,131.13 L-63.79,132.24 L-64.91,133.35 L-66.04,134.46 L-67.19,135.57 L-68.35,136.68 L-69.52,137.79 L-70.70,138.90 L-71.90,140.00 L-73.11,141.11 L-74.33,142.21 L-75.56,143.32 L-76.80,144.42 L-78.06,145.52 L-79.33,146.62 L-80.60,147.71 L-81.89,148.80 L-83.18,149.90 L-84.49,150.98 L-85.81,152.07 L-87.13,153.15 L-88.47,154.24 L-89.81,155.31 L-91.17,156.39 L-92.53,157.46 L-93.90,158.53 L-95.27,159.59 L-96.66,160.66 L-98.05,161.71 L-99.45,162.77 L-100.86,163.82 L-102.28,164.86 L-103.70,165.90 L-105.13,166.94 L-106.56,167.97 L-108.00,169.00 L-106.93,168.92 L-105.85,168.82 L-104.76,168.70 L-103.66,168.57 L-102.54,168.42 L-101.42,168.26 L-100.28,168.09 L-99.14,167.90 L-97.98,167.69 L-96.81,167.48 L-95.64,167.25 L-94.45,167.01 L-93.26,166.75 L-92.05,166.49 L-90.83,166.21 L-89.61,165.92 L-88.38,165.62 L-87.13,165.30 L-85.88,164.98 L-84.62,164.65 L-83.35,164.31 L-82.07,163.96 L-80.79,163.60 L-79.49,163.23 L-78.19,162.85 L-76.88,162.46 L-75.57,162.07 L-74.24,161.67 L-72.91,161.26 L-71.57,160.85 L-70.22,160.42 L-68.87,160.00 L-67.50,159.56 L-66.14,159.12 L-64.76,158.68 L-63.38,158.23 L-61.99,157.78 L-60.60,157.32 L-59.20,156.86 L-57.80,156.39 L-56.39,155.92 L-54.97,155.45 L-53.55,154.98 L-52.12,154.50 L-50.69,154.02 L-49.25,153.55 L-47.81,153.06 L-46.36,152.58 L-44.91,152.10 L-43.46,151.62 L-42.00,151.14 L-40.53,150.65 L-39.07,150.17 L-37.59,149.69 L-36.12,149.21 L-34.64,148.74 L-33.16,148.26 L-31.67,147.79 L-30.19,147.32 L-28.69,146.85 L-27.20,146.39 L-25.70,145.93 L-24.20,145.47 L-22.70,145.02 L-21.20,144.58 L-19.69,144.14 L-18.19,143.70 L-16.68,143.27 L-15.17,142.84 L-13.65,142.43 L-12.14,142.01 L-10.62,141.61 L-9.11,141.21 L-7.59,140.82 L-6.07,140.44 L-4.56,140.07 L-3.04,139.70 L-1.70,139.39 L-1.70,128.09 L-2.07,127.92 L-2.09,127.91 L-2.75,127.60 L-2.77,127.59 L-3.43,127.26 L-3.44,127.25 L-4.09,126.92 L-4.11,126.91 L-4.75,126.58 L-4.77,126.57 L-5.40,126.23 L-5.42,126.22 L-6.05,125.87 L-6.07,125.86 L-6.69,125.50 L-6.71,125.49 L-6.84,125.41 L-6.80,125.50 L-6.76,125.62 L-6.73,125.74 L-6.71,125.87 L-6.70,125.99 L-6.71,126.12 L-6.72,126.25 L-6.75,126.37 L-6.80,126.49 L-6.85,126.61 L-6.92,126.72 L-6.99,126.82 L-7.08,126.92 L-7.17,127.00 L-7.27,127.08 L-7.38,127.14 L-7.50,127.20 L-7.62,127.24 L-7.74,127.27 L-7.87,127.29 L-7.99,127.30 L-8.12,127.29 L-9.25,127.19 L-10.37,127.10 L-11.48,127.02 L-12.58,126.95 L-13.68,126.90 L-14.77,126.86 L-15.86,126.83 L-16.95,126.82 L-18.03,126.82 L-19.10,126.83 L-20.17,126.86 L-21.23,126.90 L-22.29,126.95 L-23.35,127.02 L-24.40,127.10 L-25.45,127.19 L-26.49,127.30 L-27.53,127.42 L-28.57,127.55 L-29.60,127.70 L-30.63,127.86 L-31.66,128.03 L-32.68,128.22 L-33.70,128.42 L-34.72,128.63 L-35.74,128.85 L-36.75,129.09 L-37.76,129.35 L-38.77,129.61 L-39.77,129.89 L-40.78,130.18 L-41.78,130.49 L-42.78,130.81 L-43.78,131.14 L-44.78,131.48 L-45.77,131.84 L-46.77,132.21 L-47.76,132.60 L-48.76,133.00 L-49.75,133.41 L-50.74,133.83 L-51.73,134.27 L-52.72,134.72 L-53.71,135.19 L-54.70,135.67 L-55.69,136.16 L-56.68,136.67 L-57.67,137.19 L-58.66,137.72 L-59.65,138.26 L-60.65,138.82 L-61.64,139.40 L-62.63,139.98 L-63.63,140.58 L-64.62,141.20 L-65.62,141.82 L-66.62,142.46 L-67.61,143.12 L-68.62,143.78 L-69.62,144.46 L-70.62,145.16 L-71.63,145.87 L-72.64,146.59 L-73.65,147.32 L-74.66,148.07 L-75.67,148.83 L-76.69,149.61 L-77.71,150.40 L-78.73,151.20 L-79.76,152.02 L-80.79,152.84 L-81.82,153.69 L-82.85,154.54 L-83.89,155.42 L-84.93,156.30 L-85.98,157.20 L-87.03,158.11 L-88.08,159.03 L-89.14,159.97 L-89.24,160.05 L-89.34,160.12 L-89.46,160.18 L-89.57,160.23 L-89.70,160.26 L-89.82,160.29 L-89.95,160.30 L-90.08,160.30 L-90.20,160.28 L-90.33,160.26 L-90.45,160.22 L-90.57,160.17 L-90.68,160.11 L-90.78,160.04 L-90.88,159.95 L-90.97,159.86 L-91.05,159.76 L-91.12,159.66 L-91.18,159.54 L-91.23,159.43 L-91.26,159.30 L-91.29,159.18 L-91.30,159.05 L-91.30,158.92 L-91.28,158.80 L-91.26,158.67 L-91.22,158.55 L-91.17,158.43 L-91.11,158.32 L-91.04,158.22 L-90.95,158.12 L-90.86,158.03 L-89.80,157.09 L-89.80,157.08 L-88.74,156.15 L-88.73,156.15 L-87.68,155.23 L-87.67,155.23 L-86.62,154.32 L-86.62,154.32 L-85.57,153.43 L-85.56,153.43 L-84.52,152.55 L-84.51,152.54 L-83.47,151.68 L-83.47,151.68 L-82.43,150.83 L-82.42,150.82 L-81.39,149.99 L-81.38,149.98 L-80.35,149.16 L-80.34,149.16 L-79.31,148.35 L-79.30,148.34 L-78.28,147.55 L-78.27,147.54 L-77.25,146.76 L-77.24,146.76 L-76.22,145.99 L-76.21,145.98 L-75.19,145.23 L-75.18,145.22 L-74.16,144.48 L-74.15,144.48 L-73.14,143.75 L-73.13,143.74 L-72.11,143.03 L-72.10,143.02 L-71.09,142.32 L-71.08,142.32 L-70.07,141.63 L-70.06,141.62 L-69.05,140.95 L-69.04,140.94 L-68.03,140.28 L-68.02,140.28 L-67.02,139.63 L-67.01,139.62 L-66.00,138.99 L-65.99,138.98 L-64.98,138.37 L-64.97,138.36 L-63.97,137.75 L-63.96,137.75 L-62.95,137.15 L-62.94,137.15 L-61.94,136.57 L-61.93,136.56 L-60.93,136.00 L-60.91,135.99 L-59.91,135.44 L-59.90,135.43 L-58.90,134.89 L-58.88,134.89 L-57.88,134.36 L-57.87,134.35 L-56.87,133.84 L-56.86,133.84 L-55.85,133.34 L-55.84,133.33 L-54.84,132.85 L-54.82,132.84 L-53.82,132.37 L-53.81,132.36 L-52.80,131.90 L-52.79,131.90 L-51.78,131.45 L-51.77,131.45 L-50.77,131.02 L-50.75,131.01 L-49.75,130.59 L-49.73,130.59 L-48.72,130.18 L-48.71,130.18 L-47.70,129.79 L-47.69,129.78 L-46.68,129.40 L-46.66,129.40 L-45.65,129.03 L-45.64,129.03 L-44.62,128.68 L-44.61,128.67 L-43.59,128.34 L-43.58,128.33 L-42.56,128.01 L-42.55,128.00 L-41.53,127.69 L-41.51,127.69 L-40.49,127.39 L-40.48,127.39 L-39.45,127.10 L-39.44,127.10 L-38.41,126.83 L-38.40,126.82 L-37.37,126.57 L-37.35,126.56 L-36.33,126.32 L-36.31,126.32 L-35.28,126.09 L-35.26,126.09 L-34.23,125.87 L-34.21,125.87 L-33.17,125.66 L-33.16,125.66 L-32.12,125.47 L-32.10,125.47 L-31.06,125.29 L-31.04,125.29 L-29.99,125.13 L-29.98,125.13 L-28.93,124.98 L-28.91,124.98 L-27.86,124.84 L-27.84,124.84 L-26.78,124.72 L-26.77,124.71 L-25.70,124.61 L-25.69,124.61 L-24.62,124.51 L-24.61,124.51 L-23.54,124.43 L-23.52,124.43 L-22.45,124.36 L-22.43,124.36 L-21.36,124.30 L-21.34,124.30 L-20.26,124.26 L-20.24,124.26 L-19.16,124.23 L-19.14,124.23 L-18.05,124.22 L-18.03,124.22 L-16.94,124.22 L-16.92,124.22 L-15.82,124.23 L-15.81,124.23 L-14.70,124.26 L-14.69,124.26 L-13.58,124.30 L-13.56,124.30 L-12.45,124.35 L-12.43,124.35 L-11.31,124.42 L-11.30,124.42 L-10.17,124.50 L-10.16,124.50 L-9.03,124.60 L-9.01,124.60 L-8.04,124.69 L-8.55,124.37 L-8.57,124.36 L-9.16,123.98 L-9.18,123.97 L-9.76,123.58 L-9.78,123.57 L-10.35,123.18 L-10.37,123.16 L-10.94,122.77 L-10.96,122.75 L-11.52,122.35 L-11.53,122.34 L-12.09,121.92 L-12.10,121.91 L-12.65,121.49 L-12.67,121.48 L-13.20,121.06 L-13.22,121.04 L-13.75,120.61 L-13.77,120.60 L-14.29,120.16 L-14.31,120.14 L-14.82,119.70 L-14.84,119.68 L-15.35,119.23 L-15.37,119.22 L-15.86,118.76 L-15.88,118.74 L-16.37,118.28 L-16.39,118.26 L-16.88,117.80 L-16.89,117.78 L-17.37,117.30 L-17.39,117.28 L-17.86,116.80 L-17.87,116.78 L-18.34,116.29 L-18.35,116.27 L-18.81,115.78 L-18.83,115.76 L-19.27,115.25 L-19.29,115.24 L-19.73,114.73 L-19.75,114.71 L-20.18,114.19 L-20.20,114.17 L-20.62,113.64 L-20.64,113.62 L-21.05,113.09 L-21.07,113.07 L-21.48,112.53 L-21.50,112.51 L-21.90,111.97 L-21.91,111.95 L-22.31,111.39 L-22.33,111.37 L-22.71,110.81 L-22.73,110.79 L-23.11,110.23 L-23.12,110.21 L-23.50,109.63 L-23.51,109.61 L-23.88,109.03 L-23.89,109.01 L-24.25,108.42 L-24.27,108.40 L-24.62,107.80 L-24.63,107.78 L-24.98,107.18 L-24.99,107.15 L-25.33,106.54 L-25.34,106.52 L-25.67,105.90 L-25.68,105.88 L-26.01,105.26 L-26.02,105.23 L-26.34,104.60 L-26.35,104.58 L-26.66,103.94 L-26.67,103.92 L-26.97,103.27 L-26.98,103.25 L-27.28,102.59 L-27.29,102.57 L-27.58,101.91 L-27.58,101.89 L-27.87,101.21 L-27.88,101.19 L-28.15,100.51 L-28.16,100.49 L-28.43,99.80 L-28.43,99.78 L-28.70,99.09 L-28.70,99.07 L-28.96,98.36 L-28.97,98.34 L-29.21,97.63 L-29.22,97.61 L-29.46,96.89 L-29.47,96.87 L-29.70,96.15 L-29.71,96.13 L-29.93,95.39 L-29.94,95.37 L-30.16,94.63 L-30.16,94.61 L-30.38,93.86 L-30.38,93.84 L-30.59,93.08 L-30.59,93.06 L-30.79,92.29 L-30.80,92.28 L-30.99,91.50 L-30.99,91.48 L-31.18,90.70 L-31.18,90.68 L-31.36,89.89 L-31.36,89.87 L-31.53,89.07 L-31.54,89.05 L-31.70,88.24 L-31.71,88.23 L-31.86,87.41 L-31.87,87.39 L-31.93,87.06 L-32.25,87.99Z M3.04,139.70 L4.56,140.07 L6.07,140.44 L7.59,140.82 L9.11,141.21 L10.62,141.61 L12.14,142.01 L13.65,142.43 L15.17,142.84 L16.68,143.27 L18.19,143.70 L19.69,144.14 L21.20,144.58 L22.70,145.02 L24.20,145.47 L25.70,145.93 L27.20,146.39 L28.69,146.85 L30.19,147.32 L31.67,147.79 L33.16,148.26 L34.64,148.74 L36.12,149.21 L37.59,149.69 L39.07,150.17 L40.53,150.65 L42.00,151.14 L43.46,151.62 L44.91,152.10 L46.36,152.58 L47.81,153.06 L49.25,153.55 L50.69,154.02 L52.12,154.50 L53.55,154.98 L54.97,155.45 L56.39,155.92 L57.80,156.39 L59.20,156.86 L60.60,157.32 L61.99,157.78 L63.38,158.23 L64.76,158.68 L66.14,159.12 L67.50,159.56 L68.87,160.00 L70.22,160.42 L71.57,160.85 L72.91,161.26 L74.24,161.67 L75.57,162.07 L76.88,162.46 L78.19,162.85 L79.49,163.23 L80.79,163.60 L82.07,163.96 L83.35,164.31 L84.62,164.65 L85.88,164.98 L87.13,165.30 L88.38,165.62 L89.61,165.92 L90.83,166.21 L92.05,166.49 L93.26,166.75 L94.45,167.01 L95.64,167.25 L96.81,167.48 L97.98,167.69 L99.14,167.90 L100.28,168.09 L101.42,168.26 L102.54,168.42 L103.66,168.57 L104.76,168.70 L105.85,168.82 L106.93,168.92 L108.00,169.00 L106.56,167.97 L105.13,166.94 L103.70,165.90 L102.28,164.86 L100.86,163.82 L99.45,162.77 L98.05,161.71 L96.66,160.66 L95.27,159.59 L93.90,158.53 L92.53,157.46 L91.17,156.39 L89.81,155.31 L88.47,154.24 L87.13,153.15 L85.81,152.07 L84.49,150.98 L83.18,149.90 L81.89,148.80 L80.60,147.71 L79.33,146.62 L78.06,145.52 L76.80,144.42 L75.56,143.32 L74.33,142.21 L73.11,141.11 L71.90,140.00 L70.70,138.90 L69.52,137.79 L68.35,136.68 L67.19,135.57 L66.04,134.46 L64.91,133.35 L63.79,132.24 L62.68,131.13 L61.59,130.01 L60.51,128.90 L59.44,127.79 L58.39,126.68 L57.36,125.57 L56.34,124.46 L55.34,123.35 L54.35,122.24 L53.37,121.13 L52.42,120.03 L51.47,118.92 L50.55,117.82 L49.64,116.71 L48.75,115.61 L47.88,114.51 L47.02,113.42 L46.18,112.32 L45.36,111.23 L44.55,110.14 L43.77,109.05 L43.00,107.96 L42.25,106.88 L41.53,105.80 L40.82,104.72 L40.12,103.65 L39.45,102.58 L38.80,101.51 L38.17,100.44 L37.56,99.38 L36.97,98.33 L36.40,97.27 L35.85,96.22 L35.33,95.18 L34.82,94.14 L34.34,93.10 L33.88,92.07 L33.44,91.05 L33.02,90.02 L32.62,89.01 L32.25,87.99 L31.93,87.06 L31.87,87.39 L31.86,87.41 L31.71,88.23 L31.70,88.24 L31.54,89.05 L31.53,89.07 L31.36,89.87 L31.36,89.89 L31.18,90.68 L31.18,90.70 L30.99,91.48 L30.99,91.50 L30.80,92.28 L30.79,92.29 L30.59,93.06 L30.59,93.08 L30.38,93.84 L30.38,93.86 L30.16,94.61 L30.16,94.63 L29.94,95.37 L29.93,95.39 L29.71,96.13 L29.70,96.15 L29.47,96.87 L29.46,96.89 L29.22,97.61 L29.21,97.63 L28.97,98.34 L28.96,98.36 L28.70,99.07 L28.70,99.09 L28.43,99.78 L28.43,99.80 L28.16,100.49 L28.15,100.51 L27.88,101.19 L27.87,101.21 L27.58,101.89 L27.58,101.91 L27.29,102.57 L27.28,102.59 L26.98,103.25 L26.97,103.27 L26.67,103.92 L26.66,103.94 L26.35,104.58 L26.34,104.60 L26.02,105.23 L26.01,105.26 L25.68,105.88 L25.67,105.90 L25.34,106.52 L25.33,106.54 L24.99,107.15 L24.98,107.18 L24.63,107.78 L24.62,107.80 L24.27,108.40 L24.25,108.42 L23.89,109.01 L23.88,109.03 L23.51,109.61 L23.50,109.63 L23.12,110.21 L23.11,110.23 L22.73,110.79 L22.71,110.81 L22.33,111.37 L22.31,111.39 L21.91,111.95 L21.90,111.97 L21.50,112.51 L21.48,112.53 L21.07,113.07 L21.05,113.09 L20.64,113.62 L20.62,113.64 L20.20,114.17 L20.18,114.19 L19.75,114.71 L19.73,114.73 L19.29,115.24 L19.27,115.25 L18.83,115.76 L18.81,115.78 L18.35,116.27 L18.34,116.29 L17.87,116.78 L17.86,116.80 L17.39,117.28 L17.37,117.30 L16.89,117.78 L16.88,117.80 L16.39,118.26 L16.37,118.28 L15.88,118.74 L15.86,118.76 L15.37,119.22 L15.35,119.23 L14.84,119.68 L14.82,119.70 L14.31,120.14 L14.29,120.16 L13.77,120.60 L13.75,120.61 L13.22,121.04 L13.20,121.06 L12.67,121.48 L12.65,121.49 L12.10,121.91 L12.09,121.92 L11.53,122.34 L11.52,122.35 L10.96,122.75 L10.94,122.77 L10.37,123.16 L10.35,123.18 L9.78,123.57 L9.76,123.58 L9.18,123.97 L9.16,123.98 L8.57,124.36 L8.55,124.37 L8.04,124.69 L9.01,124.60 L9.03,124.60 L10.16,124.50 L10.17,124.50 L11.30,124.42 L11.31,124.42 L12.43,124.35 L12.45,124.35 L13.56,124.30 L13.58,124.30 L14.69,124.26 L14.70,124.26 L15.81,124.23 L15.82,124.23 L16.92,124.22 L16.94,124.22 L18.03,124.22 L18.05,124.22 L19.14,124.23 L19.16,124.23 L20.24,124.26 L20.26,124.26 L21.34,124.30 L21.36,124.30 L22.43,124.36 L22.45,124.36 L23.52,124.43 L23.54,124.43 L24.61,124.51 L24.62,124.51 L25.69,124.61 L25.70,124.61 L26.77,124.71 L26.78,124.72 L27.84,124.84 L27.86,124.84 L28.91,124.98 L28.93,124.98 L29.98,125.13 L29.99,125.13 L31.04,125.29 L31.06,125.29 L32.10,125.47 L32.12,125.47 L33.16,125.66 L33.17,125.66 L34.21,125.87 L34.23,125.87 L35.26,126.09 L35.28,126.09 L36.31,126.32 L36.33,126.32 L37.35,126.56 L37.37,126.57 L38.40,126.82 L38.41,126.83 L39.44,127.10 L39.45,127.10 L40.48,127.39 L40.49,127.39 L41.51,127.69 L41.53,127.69 L42.55,128.00 L42.56,128.01 L43.58,128.33 L43.59,128.34 L44.61,128.67 L44.62,128.68 L45.64,129.03 L45.65,129.03 L46.66,129.40 L46.68,129.40 L47.69,129.78 L47.70,129.79 L48.71,130.18 L48.72,130.18 L49.73,130.59 L49.75,130.59 L50.75,131.01 L50.77,131.02 L51.77,131.45 L51.78,131.45 L52.79,131.90 L52.80,131.90 L53.81,132.36 L53.82,132.37 L54.82,132.84 L54.84,132.85 L55.84,133.33 L55.85,133.34 L56.86,133.84 L56.87,133.84 L57.87,134.35 L57.88,134.36 L58.88,134.89 L58.90,134.89 L59.90,135.43 L59.91,135.44 L60.91,135.99 L60.93,136.00 L61.93,136.56 L61.94,136.57 L62.94,137.15 L62.95,137.15 L63.96,137.75 L63.97,137.75 L64.97,138.36 L64.98,138.37 L65.99,138.98 L66.00,138.99 L67.01,139.62 L67.02,139.63 L68.02,140.28 L68.03,140.28 L69.04,140.94 L69.05,140.95 L70.06,141.62 L70.07,141.63 L71.08,142.32 L71.09,142.32 L72.10,143.02 L72.11,143.03 L73.13,143.74 L73.14,143.75 L74.15,144.48 L74.16,144.48 L75.18,145.22 L75.19,145.23 L76.21,145.98 L76.22,145.99 L77.24,146.76 L77.25,146.76 L78.27,147.54 L78.28,147.55 L79.30,148.34 L79.31,148.35 L80.34,149.16 L80.35,149.16 L81.38,149.98 L81.39,149.99 L82.42,150.82 L82.43,150.83 L83.47,151.68 L83.47,151.68 L84.51,152.54 L84.52,152.55 L85.56,153.43 L85.57,153.43 L86.62,154.32 L86.62,154.32 L87.67,155.23 L87.68,155.23 L88.73,156.15 L88.74,156.15 L89.80,157.08 L89.80,157.09 L90.86,158.03 L90.95,158.12 L91.04,158.22 L91.11,158.32 L91.17,158.43 L91.22,158.55 L91.26,158.67 L91.28,158.80 L91.30,158.92 L91.30,159.05 L91.29,159.18 L91.26,159.30 L91.23,159.43 L91.18,159.54 L91.12,159.66 L91.05,159.76 L90.97,159.86 L90.88,159.95 L90.78,160.04 L90.68,160.11 L90.57,160.17 L90.45,160.22 L90.33,160.26 L90.20,160.28 L90.08,160.30 L89.95,160.30 L89.82,160.29 L89.70,160.26 L89.57,160.23 L89.46,160.18 L89.34,160.12 L89.24,160.05 L89.14,159.97 L88.08,159.03 L87.03,158.11 L85.98,157.20 L84.93,156.30 L83.89,155.42 L82.85,154.54 L81.82,153.69 L80.79,152.84 L79.76,152.02 L78.73,151.20 L77.71,150.40 L76.69,149.61 L75.67,148.83 L74.66,148.07 L73.65,147.32 L72.64,146.59 L71.63,145.87 L70.62,145.16 L69.62,144.46 L68.62,143.78 L67.61,143.12 L66.62,142.46 L65.62,141.82 L64.62,141.20 L63.63,140.58 L62.63,139.98 L61.64,139.40 L60.65,138.82 L59.65,138.26 L58.66,137.72 L57.67,137.19 L56.68,136.67 L55.69,136.16 L54.70,135.67 L53.71,135.19 L52.72,134.72 L51.73,134.27 L50.74,133.83 L49.75,133.41 L48.76,133.00 L47.76,132.60 L46.77,132.21 L45.77,131.84 L44.78,131.48 L43.78,131.14 L42.78,130.81 L41.78,130.49 L40.78,130.18 L39.77,129.89 L38.77,129.61 L37.76,129.35 L36.75,129.09 L35.74,128.85 L34.72,128.63 L33.70,128.42 L32.68,128.22 L31.66,128.03 L30.63,127.86 L29.60,127.70 L28.57,127.55 L27.53,127.42 L26.49,127.30 L25.45,127.19 L24.40,127.10 L23.35,127.02 L22.29,126.95 L21.23,126.90 L20.17,126.86 L19.10,126.83 L18.03,126.82 L16.95,126.82 L15.86,126.83 L14.77,126.86 L13.68,126.90 L12.58,126.95 L11.48,127.02 L10.37,127.10 L9.25,127.19 L8.12,127.29 L7.99,127.30 L7.87,127.29 L7.74,127.27 L7.62,127.24 L7.50,127.20 L7.38,127.14 L7.27,127.08 L7.17,127.00 L7.08,126.92 L6.99,126.82 L6.92,126.72 L6.85,126.61 L6.80,126.49 L6.75,126.37 L6.72,126.25 L6.71,126.12 L6.70,125.99 L6.71,125.87 L6.73,125.74 L6.76,125.62 L6.80,125.50 L6.84,125.41 L6.71,125.49 L6.69,125.50 L6.07,125.86 L6.05,125.87 L5.42,126.22 L5.40,126.23 L4.77,126.57 L4.75,126.58 L4.11,126.91 L4.09,126.92 L3.44,127.25 L3.43,127.26 L2.77,127.59 L2.75,127.60 L2.09,127.91 L2.07,127.92 L1.70,128.09 L1.70,139.39 L3.04,139.70Z M31.82,79.38 L32.01,77.92 L32.15,76.49 L32.25,75.09 L32.31,73.72 L32.33,72.39 L32.32,71.09 L32.26,69.82 L32.17,68.57 L32.05,67.36 L31.89,66.17 L31.70,65.01 L31.48,63.87 L31.23,62.76 L30.94,61.67 L30.63,60.60 L30.29,59.55 L29.93,58.53 L29.54,57.52 L29.12,56.53 L28.69,55.56 L28.23,54.61 L27.75,53.67 L27.25,52.75 L26.73,51.84 L26.19,50.94 L25.63,50.06 L25.06,49.19 L24.48,48.32 L23.88,47.47 L23.27,46.62 L22.65,45.78 L22.01,44.95 L21.37,44.12 L20.72,43.30 L20.06,42.48 L19.40,41.66 L18.73,40.84 L18.05,40.03 L17.38,39.21 L16.70,38.39 L16.02,37.57 L15.34,36.75 L14.66,35.92 L13.99,35.09 L13.32,34.25 L12.65,33.40 L11.99,32.55 L11.33,31.68 L10.69,30.81 L10.05,29.93 L9.42,29.03 L8.80,28.12 L8.19,27.20 L7.60,26.26 L7.02,25.31 L6.46,24.34 L5.91,23.35 L5.38,22.35 L4.87,21.32 L4.38,20.28 L3.90,19.21 L3.45,18.12 L3.03,17.01 L2.62,15.87 L2.24,14.71 L1.89,13.52 L1.70,12.83 L1.70,124.32 L1.91,124.22 L2.54,123.90 L3.17,123.57 L3.78,123.24 L4.39,122.90 L4.99,122.56 L5.58,122.21 L6.16,121.85 L6.74,121.49 L7.31,121.13 L7.87,120.75 L8.43,120.38 L8.97,119.99 L9.51,119.60 L10.04,119.21 L10.57,118.80 L11.09,118.40 L11.60,117.98 L12.10,117.56 L12.59,117.13 L13.08,116.70 L13.56,116.26 L14.03,115.82 L14.50,115.36 L14.96,114.91 L15.41,114.44 L15.85,113.97 L16.29,113.49 L16.72,113.01 L17.15,112.51 L17.56,112.02 L17.97,111.51 L18.37,111.00 L18.77,110.48 L19.16,109.96 L19.54,109.42 L19.92,108.88 L20.28,108.34 L20.65,107.78 L21.00,107.22 L21.35,106.65 L21.69,106.08 L22.02,105.50 L22.35,104.90 L22.67,104.31 L22.98,103.70 L23.29,103.09 L23.59,102.47 L23.89,101.84 L24.17,101.20 L24.45,100.56 L24.73,99.91 L25.00,99.25 L25.26,98.58 L25.51,97.90 L25.76,97.22 L26.00,96.53 L26.23,95.83 L26.46,95.12 L26.68,94.40 L26.89,93.68 L27.10,92.94 L27.30,92.20 L27.50,91.45 L27.68,90.69 L27.87,89.93 L28.04,89.15 L28.21,88.37 L28.37,87.57 L28.52,86.77 L28.67,85.96 L28.81,85.14 L28.95,84.32 L29.08,83.48 L29.20,82.63 L29.32,81.77 L29.35,81.61 L29.39,81.45 L29.45,81.29 L29.53,81.15 L29.62,81.01 L29.73,80.87 L29.84,80.76 L29.97,80.65 L30.11,80.55 L30.25,80.47 L30.41,80.41 L30.57,80.36 L30.73,80.32 L30.89,80.30 L31.06,80.30 L31.23,80.32 L31.39,80.35 L31.55,80.39 L31.66,80.44 L31.82,79.38Z" fill="#F1ECE2"/></svg>